{"title":"Sweet_Jane_1998.avi","uid":7851900,"size":842663936,"categoryP":"video","categoryS":"movies","magnet":"?xt=urn:btih:ca13dc49e69a0a61ee03fef7bb9c35d977b364bb&amp;dn=Sweet_Jane_1998.avi&amp;tr=udp%3A%2F%2Ftracker.openbittorrent.com%3A80&amp;tr=udp%3A%2F%2Fopen.demonii.com%3A1337&amp;tr=udp%3A%2F%2Ftracker.coppersurfer.tk%3A6969&amp;tr=udp%3A%2F%2Fexodus.desync.com%3A6969","seeders":1,"leechers":0,"uploader":"kena007","files":-1,"time":1353623371,"description":"Sweet Jane (1998)\n &lt;a href=&quot;\nhttp://www.imdb.com/title/tt0130297/&quot; rel=&quot;nofollow&quot; target=&quot;_NEW&quot;&gt;\nhttp://www.imdb.com/title/tt0130297/&lt;/a&gt;\n\nDirector: Joe Gayton\n\nCast: Samantha Mathis, Joseph Gordon-Levitt\n\nGenre: Drama | Romance\n\nPlot: Jane, an HIV-positive heroin addict, meets Tony, a young AIDS victim with no family, and the two form a bond.\n\nVideo\nID                                       : 0\nFormat                                   : MPEG-4 Visual\nFormat profile                           : Advanced Simple@L4\nFormat settings, BVOP                    : No\nFormat settings, QPel                    : No\nFormat settings, GMC                     : No warppoints\nFormat settings, Matrix                  : Default (H.263)\nCodec ID                                 : XVID\nCodec ID/Hint                            : XviD\nDuration                                 : 1h 23mn\nBit rate                                 : 1 199 Kbps\nWidth                                    : 640 pixels\nHeight                                   : 480 pixels\nDisplay aspect ratio                     : 4:3\nFrame rate                               : 29.970 fps\nColor space                              : YUV\nChroma subsampling                       : 4:2:0\nBit depth                                : 8 bits\nScan type                                : Progressive\nCompression mode                         : Lossy\nBits/(Pixel*Frame)                       : 0.130\nStream size                              : 719 MiB (89%)\nWriting library                          : Magic0432\n\nAudio\nID                                       : 1\nFormat                                   : MPEG Audio\nFormat version                           : Version 1\nFormat profile                           : Layer 3\nMode                                     : Joint stereo\nMode extension                           : MS Stereo\nCodec ID                                 : 55\nCodec ID/Hint                            : MP3\nDuration                                 : 1h 23mn\nBit rate mode                            : Constant\nBit rate                                 : 128 Kbps\nChannel(s)                               : 2 channels\nSampling rate                            : 44.1 KHz\nCompression mode                         : Lossy\nStream size                              : 76.7 MiB (10%)\nAlignment                                : Aligned on interleaves\nInterleave, duration                     : 26 ms (0.78 video frame)","torrent":{"xt":"urn:btih:ca13dc49e69a0a61ee03fef7bb9c35d977b364bb","amp;dn":"Sweet_Jane_1998.avi","amp;tr":["udp%3A%2F%2Ftracker.openbittorrent.com%3A80","udp%3A%2F%2Fopen.demonii.com%3A1337","udp%3A%2F%2Ftracker.coppersurfer.tk%3A6969","udp%3A%2F%2Fexodus.desync.com%3A6969"],"infoHash":"ca13dc49e69a0a61ee03fef7bb9c35d977b364bb","infoHashBuffer":{"type":"Buffer","data":[202,19,220,73,230,154,10,97,238,3,254,247,187,156,53,217,119,179,100,187]},"announce":[],"urlList":[]}}